<svg xmlns="http://www.w3.org/2000/svg" viewBox="0 0 96 96"><defs><linearGradient id="bg" x2="1" y2="1"><stop stop-color="#FDEBF2"/><stop offset="1" stop-color="#F7C2D4"/></linearGradient><linearGradient id="gift" x2="0" y2="1"><stop stop-color="#FF9A43"/><stop offset="1" stop-color="#F97316"/></linearGradient></defs><rect x="8" y="12" width="80" height="76" rx="22" fill="#172033" opacity=".1"/><rect x="8" y="8" width="80" height="76" rx="22" fill="url(#bg)"/><path d="M26 43h45v31H26z" fill="url(#gift)" stroke="#172033" stroke-width="3"/><path d="M22 34h53v13H22z" fill="#fff" stroke="#172033" stroke-width="3"/><path d="M48 34v40" stroke="#172033" stroke-width="3"/><path d="M48 34c-14 0-20-3-18-10 2-7 12-5 18 10Z" fill="#F97316" stroke="#172033" stroke-width="2.5"/><path d="M48 34c14 0 20-3 18-10-2-7-12-5-18 10Z" fill="#FDBA74" stroke="#172033" stroke-width="2.5"/><circle cx="72" cy="63" r="13" fill="#172033" stroke="#fff" stroke-width="3"/><path d="m68 67 8-8m-7 1h.1m6 7h.1" stroke="#F97316" stroke-width="3" stroke-linecap="round"/></svg>
