<svg xmlns="http://www.w3.org/2000/svg" viewBox="0 0 96 96"><defs><linearGradient id="bg" x2="1" y2="1"><stop stop-color="#E8F1FF"/><stop offset="1" stop-color="#C1D4F2"/></linearGradient></defs><rect x="8" y="12" width="80" height="76" rx="22" fill="#172033" opacity=".1"/><rect x="8" y="8" width="80" height="76" rx="22" fill="url(#bg)"/><circle cx="38" cy="36" r="11" fill="#FFB66F" stroke="#172033" stroke-width="3"/><path d="M17 72a21 21 0 0 1 42 0v5H17v-5Z" fill="#F97316" stroke="#172033" stroke-width="3"/><circle cx="64" cy="40" r="9" fill="#fff" stroke="#172033" stroke-width="3"/><path d="M55 72a17 17 0 0 1 34 0v5H56" fill="#35547D" stroke="#172033" stroke-width="3"/><path d="m68 56 8 3v8c0 5-3 8-8 10-5-2-8-5-8-10v-8l8-3Z" fill="#fff" stroke="#172033" stroke-width="2.5"/><path d="m64.5 66 2.5 2.5 5-5" fill="none" stroke="#F97316" stroke-width="2.5" stroke-linecap="round" stroke-linejoin="round"/></svg>
